<?xml version="1.0" encoding="utf-8"?>
<!-- Generator: Adobe Illustrator 26.2.1, SVG Export Plug-In . SVG Version: 6.00 Build 0)  -->
<svg version="1.1" id="Layer_1" xmlns="http://www.w3.org/2000/svg" xmlns:xlink="http://www.w3.org/1999/xlink" x="0px" y="0px"
	 viewBox="0 0 414.8 107.3" style="enable-background:new 0 0 414.8 107.3;" xml:space="preserve">
<style type="text/css">
	.st0{fill:#53AD6F;}
	.st1{fill-rule:evenodd;clip-rule:evenodd;fill:#53AD6F;}
	.st2{fill-rule:evenodd;clip-rule:evenodd;fill:#7EC695;}
	.st3{clip-path:url(#SVGID_00000080908848420815122080000018211199166613521031_);fill:#7EC695;}
	.st4{fill-rule:evenodd;clip-rule:evenodd;fill:#98CEA9;}
	.st5{clip-path:url(#SVGID_00000117651187258167848560000000060225868880498875_);fill:#98CEA9;}
	.st6{fill-rule:evenodd;clip-rule:evenodd;}
	.st7{clip-path:url(#SVGID_00000138562066016868614320000008205454483541564060_);}
</style>
<g>
	<g>
		<g>
			<path class="st0" d="M168.3,56.4c13,0,20.7,7.3,20.7,19.5c0,12.3-7.7,19.6-20.7,19.6h-15.2v-39L168.3,56.4L168.3,56.4z M168,90.5
				c9.6,0,15.3-5.4,15.3-14.6c0-9.1-5.6-14.5-15.3-14.5h-9.3v29.1H168z"/>
			<path class="st0" d="M198.3,83.4c0.7,5.1,4.8,8.2,11.1,8.2c4.1,0,7.6-1.3,10.2-3.8h0.2v5.1c-2.5,2-6.2,3.2-10.5,3.2
				c-9.7,0-16-5.7-16-14.3c0-8.4,5.9-14.3,14.3-14.3c8.5,0,13.9,5.2,13.9,13.2v2.8L198.3,83.4L198.3,83.4z M198.3,79.2h18.6
				c-0.7-4.5-4.2-7.4-9.2-7.4C203,71.9,199.3,74.8,198.3,79.2z"/>
			<path class="st0" d="M256.4,81.7c0,8.4-5.8,14.3-13.8,14.3c-4.8,0-8.5-1.8-10.6-4.9h-0.1l-0.1,4.4h-4.2V54.3h5v17.2h0.1
				c2.2-2.6,5.6-4.1,10-4.1C250.6,67.4,256.4,73.4,256.4,81.7z M251.4,81.7c0-5.8-3.9-9.9-9.5-9.9s-9.5,4.1-9.5,9.9s3.9,9.9,9.5,9.9
				C247.4,91.6,251.4,87.6,251.4,81.7z"/>
			<path class="st0" d="M283.1,95.5l-0.1-4.4h-0.1c-1.9,3.1-5.2,4.9-9.9,4.9c-7,0-11.3-4.5-11.3-12.1V68h5v15.5
				c0,5.2,2.8,8.2,7.5,8.2c5.1,0,8.2-3.5,8.2-9.4V68h5v27.5H283.1z"/>
			<path class="st0" d="M322.3,93.3c0,8.7-5.5,13.9-14.9,13.9c-4.8,0-8.9-1.4-11.5-3.6v-5.2h0.2c2.2,2.8,6.2,4.4,10.7,4.4
				c6.6,0,10.4-3.5,10.4-9.8v-1.4h-0.1c-2.2,2.6-5.6,4.2-10.1,4.2c-8,0-13.8-5.9-13.8-14.2S299,67.4,307,67.4c4.8,0,8.6,1.9,10.6,5
				h0.1l0.2-4.4h4.2v25.3H322.3z M317.5,81.6c0-5.8-3.9-9.8-9.5-9.8s-9.5,3.9-9.5,9.8c0,5.8,3.9,9.8,9.5,9.8
				C313.5,91.4,317.5,87.4,317.5,81.6z"/>
			<path class="st0" d="M357.2,93.3c0,8.7-5.5,13.9-14.9,13.9c-4.8,0-8.9-1.4-11.5-3.6v-5.2h0.2c2.2,2.8,6.2,4.4,10.7,4.4
				c6.6,0,10.4-3.5,10.4-9.8v-1.4H352c-2.2,2.6-5.6,4.2-10.1,4.2c-8,0-13.8-5.9-13.8-14.2s5.8-14.2,13.8-14.2c4.8,0,8.6,1.9,10.6,5
				h0.1L353,68h4.2V93.3z M352.4,81.6c0-5.8-3.9-9.8-9.5-9.8s-9.5,3.9-9.5,9.8c0,5.8,3.9,9.8,9.5,9.8S352.4,87.4,352.4,81.6z"/>
			<path class="st0" d="M368.3,83.4c0.7,5.1,4.8,8.2,11.1,8.2c4.1,0,7.6-1.3,10.2-3.8h0.2v5.1c-2.5,2-6.2,3.2-10.5,3.2
				c-9.7,0-16-5.7-16-14.3c0-8.4,5.9-14.3,14.3-14.3c8.5,0,13.9,5.2,13.9,13.2v2.8L368.3,83.4L368.3,83.4z M368.3,79.2h18.6
				c-0.7-4.5-4.2-7.4-9.2-7.4C372.9,71.9,369.2,74.8,368.3,79.2z"/>
			<path class="st0" d="M414.8,68.4v5h-0.2c-1.2-0.8-2.6-1.3-4.3-1.3c-5.3,0-7.8,3.6-7.8,10.8v12.5h-5V68h4.2l0.1,4.4h0.1
				c1.6-3.3,4.5-5,8.7-5C412.5,67.4,413.9,67.9,414.8,68.4z"/>
		</g>
		<g>
			<path d="M180.7,5.2v3.9h-0.2c-2.6-2.9-7.2-4.6-12.8-4.6c-6.4,0-10.9,3.4-10.9,8.3c0,4.3,2.7,6.3,11.3,7.1c10.6,1,14.4,4,14.4,11
				c0,6.9-5.6,11.2-14.5,11.2c-6.3,0-11.6-1.6-15-4.5v-3.9h0.2c3.4,3.5,8.5,5.3,14.8,5.3c7,0,11.2-3.1,11.2-8.2
				c0-4.7-2.8-6.9-11.9-7.8c-10.2-1.1-13.8-3.8-13.8-10.3c0-6.8,5.6-11.3,14.1-11.3C173.4,1.5,178.1,2.9,180.7,5.2z"/>
			<path d="M190.2,28.5c0.4,6.7,5.2,10.9,12.8,10.9c4.3,0,7.8-1.4,10.6-4.1h0.2v3.2c-2.6,2.3-6.5,3.6-10.8,3.6
				c-9.7,0-15.8-5.6-15.8-14.4c0-8.4,6-14.4,14.4-14.4c8.5,0,14.1,5.3,14.1,13.4v1.8C215.7,28.5,190.2,28.5,190.2,28.5z M190.2,25.9
				h22.6c-0.4-5.9-4.7-9.9-11.2-9.9C195.4,16,191,20.1,190.2,25.9z"/>
			<path d="M238.3,14.4v3.1h-0.2c-1.3-0.9-2.7-1.3-4.3-1.3c-5.8,0-8.7,4.2-8.7,12.2v13.2h-3V13.9h2.6l0.1,5.3h0.1
				c1.7-3.9,4.7-5.9,9.1-5.9C235.9,13.3,237.3,13.8,238.3,14.4z"/>
			<path d="M252.2,41.5l-12.4-27.7h3.3l10.7,24.3h0.1l10.6-24.3h3.1l-12.4,27.7H252.2z"/>
			<path d="M272.8,28.5c0.4,6.7,5.2,10.9,12.8,10.9c4.3,0,7.8-1.4,10.6-4.1h0.2v3.2c-2.6,2.3-6.5,3.6-10.8,3.6
				c-9.7,0-15.8-5.6-15.8-14.4c0-8.4,6-14.4,14.4-14.4c8.5,0,14.1,5.3,14.1,13.4v1.8C298.3,28.5,272.8,28.5,272.8,28.5z M272.8,25.9
				h22.6C295,20,290.7,16,284.2,16C278,16,273.5,20.1,272.8,25.9z"/>
			<path d="M320.9,14.4v3.1h-0.2c-1.3-0.9-2.7-1.3-4.3-1.3c-5.8,0-8.7,4.2-8.7,12.2v13.2h-3V13.9h2.6l0.1,5.3h0.1
				c1.7-3.9,4.7-5.9,9.1-5.9C318.4,13.3,319.8,13.8,320.9,14.4z"/>
			<path d="M325.7,0h3v41.5h-3V0z"/>
			<path d="M338.4,28.5c0.4,6.7,5.2,10.9,12.8,10.9c4.3,0,7.8-1.4,10.6-4.1h0.2v3.2c-2.6,2.3-6.5,3.6-10.8,3.6
				c-9.7,0-15.8-5.6-15.8-14.4c0-8.4,6-14.4,14.4-14.4c8.5,0,14.1,5.3,14.1,13.4v1.8C363.9,28.5,338.4,28.5,338.4,28.5z M338.4,25.9
				H361c-0.4-5.9-4.7-9.9-11.2-9.9C343.6,16,339.1,20.1,338.4,25.9z"/>
			<path d="M388,15.7V19h-0.2c-1.9-2-4.9-3-9-3c-4.2,0-7.3,2.4-7.3,5.6c0,2.8,1.8,4,7.5,4.3c7.7,0.4,10.4,2.7,10.4,7.8
				c0,5-4.1,8.3-10.5,8.3c-4.6,0-8.2-1.1-10.6-3.1v-3.5h0.2c2.2,2.6,5.8,3.9,10.3,3.9c4.6,0,7.7-2.2,7.7-5.6c0-3.1-1.9-4.5-8-4.8
				c-7.4-0.4-10-2.6-10-7.3c0-5,4.2-8.4,10.2-8.4C382.6,13.3,386,14.2,388,15.7z"/>
			<path d="M413.3,15.7V19h-0.2c-1.9-2-4.9-3-9-3c-4.2,0-7.3,2.4-7.3,5.6c0,2.8,1.8,4,7.5,4.3c7.7,0.4,10.4,2.7,10.4,7.8
				c0,5-4.1,8.3-10.5,8.3c-4.6,0-8.2-1.1-10.6-3.1v-3.5h0.2c2.2,2.6,5.8,3.9,10.3,3.9c4.6,0,7.7-2.2,7.7-5.6c0-3.1-1.9-4.5-8-4.8
				c-7.4-0.4-10-2.6-10-7.3c0-5,4.2-8.4,10.2-8.4C407.9,13.3,411.4,14.2,413.3,15.7z"/>
		</g>
	</g>
	<g>
		<path class="st1" d="M0,95.5c0,0-4.1-34.3,13.5-48.5c20-16.3,32-10.7,61.1-33.8c7.4-5.9,10-7.3,16-7.3c7,0,10.4,3.2,14.2,7.7
			c6,7.1,20.7,7.4,22,17.8c1.4,11.3-39.5,26.7-41.2,64.2L0,95.5L0,95.5z"/>
		<g>
			<g>
				<path id="SVGID_1_" class="st2" d="M121.3,40.8c-9,2.8-60.3,21.1-62.9,54.7h27.3C86.8,64.4,109.4,77.1,121.3,40.8L121.3,40.8z"
					/>
			</g>
			<g>
				<defs>
					<path id="SVGID_00000149378608095190063170000012775991146387135901_" d="M121.3,40.8c-9,2.8-60.3,21.1-62.9,54.7h27.3
						C86.8,64.4,109.4,77.1,121.3,40.8"/>
				</defs>
				<clipPath id="SVGID_00000157268151954884890970000004657525998280229789_">
					<use xlink:href="#SVGID_00000149378608095190063170000012775991146387135901_"  style="overflow:visible;"/>
				</clipPath>
				<polygon style="clip-path:url(#SVGID_00000157268151954884890970000004657525998280229789_);fill:#7EC695;" points="58.4,95.5 
					119.5,95.5 121.3,40.8 58.4,44 				"/>
			</g>
		</g>
		<g>
			<g>
				<path id="SVGID_00000033356052304122738500000001524580944714209157_" class="st4" d="M89.7,1.5c7.7,0,14,6.3,14,14
					s-6.3,14-14,14s-14-6.3-14-14S81.9,1.5,89.7,1.5L89.7,1.5z"/>
			</g>
			<g>
				<defs>
					<path id="SVGID_00000042712288668346995410000010445637076371584144_" d="M89.7,1.5c7.7,0,14,6.3,14,14s-6.3,14-14,14
						s-14-6.3-14-14S81.9,1.5,89.7,1.5"/>
				</defs>
				<clipPath id="SVGID_00000066500596114184830970000010868197090436291743_">
					<use xlink:href="#SVGID_00000042712288668346995410000010445637076371584144_"  style="overflow:visible;"/>
				</clipPath>
				
					<rect x="75.7" y="1.5" style="clip-path:url(#SVGID_00000066500596114184830970000010868197090436291743_);fill:#98CEA9;" width="28" height="28"/>
			</g>
		</g>
		<g>
			<g>
				<path id="SVGID_00000142138276031448361770000002938792623982345616_" class="st6" d="M92.2,3.6c5.2,0,9.4,4.2,9.4,9.4
					s-4.2,9.4-9.4,9.4c-5.2,0-9.4-4.2-9.4-9.4C82.8,7.8,87,3.6,92.2,3.6L92.2,3.6z"/>
			</g>
			<g>
				<defs>
					<path id="SVGID_00000054975366644228491310000017330085809300788643_" d="M92.2,3.6c5.2,0,9.4,4.2,9.4,9.4s-4.2,9.4-9.4,9.4
						c-5.2,0-9.4-4.2-9.4-9.4C82.8,7.8,87,3.6,92.2,3.6"/>
				</defs>
				<clipPath id="SVGID_00000037690399606113426040000011031676229731144890_">
					<use xlink:href="#SVGID_00000054975366644228491310000017330085809300788643_"  style="overflow:visible;"/>
				</clipPath>
				
					<rect x="82.8" y="3.6" style="clip-path:url(#SVGID_00000037690399606113426040000011031676229731144890_);" width="18.8" height="18.8"/>
			</g>
		</g>
		<path class="st1" d="M53,40.8c0,0,3.7,29.4,30.5,36.1s18.1,18.6,18.1,18.6H53V40.8z"/>
	</g>
</g>
</svg>
